<mxfile host="app.diagrams.net" agent="Mozilla/5.0 (Windows NT 10.0; Win64; x64) AppleWebKit/537.36 (KHTML, like Gecko) Chrome/131.0.0.0 Safari/537.36" version="24.8.6">
  <diagram name="หน้า-1" id="twWgDw4X4hLWwTHZoVUC">
    <mxGraphModel dx="1050" dy="530" grid="1" gridSize="10" guides="1" tooltips="1" connect="1" arrows="1" fold="1" page="1" pageScale="1" pageWidth="827" pageHeight="1169" math="0" shadow="0">
      <root>
        <mxCell id="0" />
        <mxCell id="1" parent="0" />
        <mxCell id="x-ba8FxkzOy5UBFMCCpt-3" value="" style="edgeStyle=orthogonalEdgeStyle;rounded=0;orthogonalLoop=1;jettySize=auto;html=1;" edge="1" parent="1" source="x-ba8FxkzOy5UBFMCCpt-1" target="x-ba8FxkzOy5UBFMCCpt-2">
          <mxGeometry relative="1" as="geometry" />
        </mxCell>
        <mxCell id="x-ba8FxkzOy5UBFMCCpt-1" value="start" style="ellipse;whiteSpace=wrap;html=1;" vertex="1" parent="1">
          <mxGeometry x="354" y="10" width="120" height="80" as="geometry" />
        </mxCell>
        <mxCell id="x-ba8FxkzOy5UBFMCCpt-7" value="" style="edgeStyle=orthogonalEdgeStyle;rounded=0;orthogonalLoop=1;jettySize=auto;html=1;" edge="1" parent="1" source="x-ba8FxkzOy5UBFMCCpt-2" target="x-ba8FxkzOy5UBFMCCpt-6">
          <mxGeometry relative="1" as="geometry" />
        </mxCell>
        <mxCell id="x-ba8FxkzOy5UBFMCCpt-2" value="input a" style="shape=parallelogram;perimeter=parallelogramPerimeter;whiteSpace=wrap;html=1;fixedSize=1;" vertex="1" parent="1">
          <mxGeometry x="354" y="180" width="120" height="60" as="geometry" />
        </mxCell>
        <mxCell id="x-ba8FxkzOy5UBFMCCpt-11" value="" style="edgeStyle=orthogonalEdgeStyle;rounded=0;orthogonalLoop=1;jettySize=auto;html=1;" edge="1" parent="1" source="x-ba8FxkzOy5UBFMCCpt-6" target="x-ba8FxkzOy5UBFMCCpt-10">
          <mxGeometry relative="1" as="geometry" />
        </mxCell>
        <mxCell id="x-ba8FxkzOy5UBFMCCpt-6" value="input b" style="shape=parallelogram;perimeter=parallelogramPerimeter;whiteSpace=wrap;html=1;fixedSize=1;" vertex="1" parent="1">
          <mxGeometry x="354" y="320" width="120" height="60" as="geometry" />
        </mxCell>
        <mxCell id="x-ba8FxkzOy5UBFMCCpt-13" value="" style="edgeStyle=orthogonalEdgeStyle;rounded=0;orthogonalLoop=1;jettySize=auto;html=1;" edge="1" parent="1" source="x-ba8FxkzOy5UBFMCCpt-10" target="x-ba8FxkzOy5UBFMCCpt-12">
          <mxGeometry relative="1" as="geometry" />
        </mxCell>
        <mxCell id="x-ba8FxkzOy5UBFMCCpt-10" value="input c" style="shape=parallelogram;perimeter=parallelogramPerimeter;whiteSpace=wrap;html=1;fixedSize=1;" vertex="1" parent="1">
          <mxGeometry x="354" y="460" width="120" height="60" as="geometry" />
        </mxCell>
        <mxCell id="x-ba8FxkzOy5UBFMCCpt-15" value="" style="edgeStyle=orthogonalEdgeStyle;rounded=0;orthogonalLoop=1;jettySize=auto;html=1;" edge="1" parent="1" source="x-ba8FxkzOy5UBFMCCpt-12" target="x-ba8FxkzOy5UBFMCCpt-14">
          <mxGeometry relative="1" as="geometry" />
        </mxCell>
        <mxCell id="x-ba8FxkzOy5UBFMCCpt-12" value="a + b + c" style="whiteSpace=wrap;html=1;" vertex="1" parent="1">
          <mxGeometry x="354" y="600" width="120" height="60" as="geometry" />
        </mxCell>
        <mxCell id="x-ba8FxkzOy5UBFMCCpt-17" value="" style="edgeStyle=orthogonalEdgeStyle;rounded=0;orthogonalLoop=1;jettySize=auto;html=1;" edge="1" parent="1" source="x-ba8FxkzOy5UBFMCCpt-14" target="x-ba8FxkzOy5UBFMCCpt-16">
          <mxGeometry relative="1" as="geometry" />
        </mxCell>
        <mxCell id="x-ba8FxkzOy5UBFMCCpt-14" value="output ans" style="shape=parallelogram;perimeter=parallelogramPerimeter;whiteSpace=wrap;html=1;fixedSize=1;" vertex="1" parent="1">
          <mxGeometry x="354" y="740" width="120" height="60" as="geometry" />
        </mxCell>
        <mxCell id="x-ba8FxkzOy5UBFMCCpt-16" value="end" style="ellipse;whiteSpace=wrap;html=1;" vertex="1" parent="1">
          <mxGeometry x="354" y="900" width="120" height="80" as="geometry" />
        </mxCell>
      </root>
    </mxGraphModel>
  </diagram>
</mxfile>
